<svg version="1.1" id="Layer_1" xmlns="http://www.w3.org/2000/svg" xmlns:xlink="http://www.w3.org/1999/xlink" x="0px" y="0px"
	 viewBox="0 0 1839.9 680.19" style="enable-background:new 0 0 1839.9 680.19;" xml:space="preserve">
<style type="text/css">
	.st0{fill:#356AFF;}
	.st1{fill:#FFCE08;}
</style>
<rect x="0.69" class="st0" width="1840.32" height="680.19"/>
<path class="st1" d="M162.74,621.74c-179,0-324.11-145.11-324.11-324.12c0,0,0,0,0-0.01c0-0.21,0-0.43,0.01-0.64h130.6
	c0,0.22,0,0.43,0,0.64c0,106.71,86.81,193.51,193.51,193.51l0,0v130.61L162.74,621.74z"/>
<path class="st1" d="M125.9,70.77C170.07-5.96,243.05-61.88,328.63-84.56c0.21-0.06,0.43-0.11,0.64-0.16l34.86,130.1
	c-0.22,0.06-0.43,0.11-0.64,0.17c-50.97,13.62-94.45,46.94-120.86,92.62L125.9,70.77z"/>
<path class="st1" d="M1039.27,752.54c-0.29-0.17-0.58-0.35-0.88-0.52l103.72-179.65c0.3,0.18,0.58,0.35,0.88,0.52
	c146.77,84.74,335.12,34.27,419.85-112.49l179.65,103.71l0,0c-67.98,118.49-180.54,204.86-312.58,239.85
	c-43.72,11.76-88.79,17.73-134.07,17.76C1205.72,821.65,1117.21,797.79,1039.27,752.54z"/>
<circle class="st1" cx="1579.94" cy="7.85" r="261.07"/>
</svg>
