<?xml version="1.0" encoding="utf-8"?>
<!-- Generator: Adobe Illustrator 24.0.1, SVG Export Plug-In . SVG Version: 6.00 Build 0)  -->
<svg version="1.1" id="Layer_1" xmlns="http://www.w3.org/2000/svg" xmlns:xlink="http://www.w3.org/1999/xlink" x="0px" y="0px"
	 viewBox="0 0 4000 3000" style="enable-background:new 0 0 4000 3000;" xml:space="preserve">
<style type="text/css">
	.st0{fill:#356AFF;}
	.st1{fill:#2AD891;}
</style>
<rect class="st0" width="4000" height="3000"/>
<path class="st1" d="M659.2,2149.3c-333.3,0-603.5-270.2-603.5-603.5c0,0,0,0,0,0c0-0.4,0-0.8,0-1.2h243.2c0,0.4,0,0.8,0,1.2
	c0,198.7,161.6,360.3,360.3,360.3l0,0L659.2,2149.3L659.2,2149.3z"/>
<path class="st1" d="M1255.8,2115c-14-452.5,341.5-830.7,794.1-844.7c0,0,0,0,0,0c0.5,0,1.1,0,1.6,0l10.2,330.2c-0.6,0-1.1,0-1.6,0
	c-269.8,8.3-482.4,234.6-474.1,504.3l0,0L1255.8,2115L1255.8,2115z"/>
<path class="st1" d="M590.6,1123.5c82.2-142.9,218.1-247,377.5-289.2c0.4-0.1,0.8-0.2,1.2-0.3l64.9,242.2c-0.4,0.1-0.8,0.2-1.2,0.3
	c-94.9,25.4-175.9,87.4-225,172.5L590.6,1123.5z"/>
<path class="st1" d="M2291.2,2392.9c-0.5-0.3-1.1-0.7-1.6-1l193.1-334.5c0.6,0.3,1.1,0.7,1.6,1c273.3,157.8,624,63.8,781.7-209.4
	l334.5,193.1l0,0c-126.6,220.6-336.2,381.4-582,446.6c-81.4,21.9-165.3,33-249.6,33.1C2601.2,2521.6,2436.4,2477.1,2291.2,2392.9z"
	/>
<circle class="st1" cx="3297.9" cy="1006.3" r="486.1"/>
</svg>
