<?xml version="1.0" encoding="utf-8"?>
<!-- Generator: Adobe Illustrator 26.5.0, SVG Export Plug-In . SVG Version: 6.00 Build 0)  -->
<svg version="1.1" id="Layer_1" xmlns="http://www.w3.org/2000/svg" xmlns:xlink="http://www.w3.org/1999/xlink" x="0px" y="0px"
	 viewBox="0 0 1080 1080" style="enable-background:new 0 0 1080 1080;" xml:space="preserve">
<style type="text/css">
	.st0{fill:#396DFF;}
</style>
<g>
	<path class="st0" d="M1029.4,337.1C917.6,67.2,607-61.5,337.1,50.3C67.2,162.2-61.5,472.7,50.3,742.6
		c54.2,130.8,156,232.6,286.8,286.8c65.4,27.1,134.1,40.6,202.8,40.6c68.7,0,137.4-13.5,202.8-40.6
		c130.8-54.2,232.6-156,286.8-286.7C1083.5,611.9,1083.5,467.9,1029.4,337.1z M301.1,638.7c-26.4-63.8-26.4-134,0-197.8
		c26.4-63.8,76.1-113.4,139.8-139.8c63.8-26.4,134-26.4,197.8,0c63.8,26.4,113.4,76.1,139.8,139.8c54.5,131.6-8.2,283.1-139.8,337.6
		C507.1,833.1,355.7,770.4,301.1,638.7z M725.3,92.3L725.3,92.3l-69.2,166.9l0,0c-75-31-157.5-31-232.5,0h0l-69.2-167
		C474,42.7,605.7,42.7,725.3,92.3z M92.5,354.5l166.7,69.1l0,0c-31.1,75-31.1,157.5,0,232.5l0,0L92.3,725.3l0,0
		C41.1,601.9,45,469.2,92.5,354.5z M354.5,987.5L354.5,987.5l69.3-167.3c36.7,15.2,76.2,23.4,116.5,23.4c38.7,0,78-7.4,115.8-23.1
		l69.2,166.9C605.7,1037,474,1037,354.5,987.5z M987.5,725.3L987.5,725.3l-166.9-69.2c31.1-75,31.1-157.5,0-232.5l0,0l167-69.2
		C1037,474,1037,605.7,987.5,725.3z"/>
</g>
</svg>
